<?xml version="1.0" encoding="UTF-8"?>
<!-- Generator: Adobe Illustrator 19.1.0, SVG Export Plug-In . SVG Version: 6.00 Build 0)  -->
<svg xmlns="http://www.w3.org/2000/svg" xmlns:xlink="http://www.w3.org/1999/xlink" id="Layer_1" x="0px" y="0px" viewBox="0 0 91 37" style="enable-background:new 0 0 91 37;" xml:space="preserve">
<g>
	<g>
		<path d="M12.9,1.1c6.5,0,10.4,3.8,10.4,9.2c0,3.6-2.1,6.3-5,7.3c3.6,1,6.1,4.1,6.1,8.1c0,5.5-4.2,9.4-10.6,9.4H1.2v-34H12.9z     M12.1,15.5c3.4,0,5.4-1.9,5.4-4.8c0-2.9-2-4.8-5.5-4.8H6.9v9.5H12.1z M12.8,30.2c3.5,0,5.7-1.9,5.7-4.9c0-2.9-2-5-5.5-5h-6v9.9    H12.8z"></path>
	</g>
	<path d="M78.4,1.1c6.5,0,10.4,3.8,10.4,9.2c0,3.6-2.1,6.3-5,7.3c3.6,1,6.1,4.1,6.1,8.1c0,5.5-4.2,9.4-10.6,9.4H66.7v-34H78.4z    M77.6,15.5c3.4,0,5.4-1.9,5.4-4.8C83,7.9,81,6,77.5,6h-5.1v9.5H77.6z M78.2,30.2c3.5,0,5.7-1.9,5.7-4.9c0-2.9-2-5-5.5-5h-6v9.9   H78.2z"></path>
	<path d="M63.3,35.2l-6.9-8.9c1.5-3,2.4-6.7,2.4-10.8h-5.3c0,0.1,0,0.2,0,0.3c0,0.1,0,0.2,0,0.3c0,0.4,0,0.9-0.1,1.5   c-0.1,0.6-0.1,1.2-0.3,1.8c-0.1,0.3-0.1,0.6-0.2,1c-0.1,0.3-0.2,0.6-0.3,0.9L40.8,6.1h12.7v-5H30.3l4,5.1l3.4,4.3   c-0.2,0.1-0.4,0.1-0.6,0.2c-1.1,0.4-2.2,1.1-3.1,1.9c-1,0.8-1.8,1.7-2.5,2.8c-0.7,1-1.2,2.2-1.6,3.4c-0.2,0.6-0.3,1.2-0.4,1.9   l-0.1,0.5c0,0.2,0,0.3,0,0.4l-0.1,0.7l0,0.2l0,0l0,0.1l0,0.1l0,0.2l0,0.5c0,0.3,0,0.6,0.1,0.9c0,0.6,0.2,1.2,0.3,1.8   c0.3,1.2,0.7,2.4,1.4,3.5c0.6,1.1,1.4,2.1,2.3,2.9c0.9,0.8,1.9,1.6,3,2.1c0.5,0.3,1.1,0.5,1.7,0.7l0.8,0.2c0.3,0.1,0.6,0.1,0.9,0.2   l0,0c0.5,0.1,1,0.1,1.7,0.2l0.2,0l0.1,0c0.8,0,1.8,0,2.7-0.1c0,0,0,0,0,0c0.5-0.1,0.9-0.2,1.4-0.3c0.1,0,0.2-0.1,0.3-0.1   c0.1,0,0.3-0.1,0.4-0.1l-0.1,0c2.1-0.6,4.1-1.8,5.9-3.4c0.1-0.1,0.1-0.1,0.2-0.2c0,0,0,0,0.1-0.1c0.3-0.3,0.6-0.6,0.8-0.9l3.4,4.4   H63.3z M43.7,30.2c-0.4,0.1-0.8,0.1-1.2,0.1c0,0,0,0,0,0c0,0,0,0,0,0c-0.2,0-0.4,0-0.6,0l-0.1,0l-0.1,0l-0.1,0c-0.1,0-0.1,0-0.2,0   c0,0,0,0,0,0c-0.4,0-0.8-0.1-0.9-0.1c-0.1,0-0.2,0-0.4-0.1L39.7,30c-0.3-0.1-0.6-0.2-0.9-0.4C37.6,29,36.7,28,36,26.8   c-0.3-0.6-0.6-1.3-0.7-2c-0.1-0.4-0.1-0.7-0.2-1.1c0-0.2,0-0.4,0-0.5l0-0.3l0-0.1l0-0.1l0,0l0,0l0-0.6c0-0.1,0-0.3,0-0.3l0-0.2   c0-0.3,0.1-0.6,0.2-1c0.2-0.7,0.5-1.3,0.9-1.9c0.8-1.2,1.8-2.1,3-2.6c0.6-0.2,1.2-0.4,1.8-0.5c0.1,0,0.3,0,0.4,0l8.5,10.9   C48.1,28.8,45.7,29.9,43.7,30.2z"></path>
</g>
</svg>
