<?xml version="1.0" encoding="UTF-8" standalone="no"?>
<svg width="102px" height="98px" viewBox="0 0 102 98" version="1.1" xmlns="http://www.w3.org/2000/svg" xmlns:xlink="http://www.w3.org/1999/xlink" xmlns:sketch="http://www.bohemiancoding.com/sketch/ns">
    <!-- Generator: Sketch 3.3.2 (12043) - http://www.bohemiancoding.com/sketch -->
    <title>logo 2 + Imported Layers 3@1x</title>
    <desc>Created with Sketch.</desc>
    <defs>
        <filter x="-50%" y="-50%" width="200%" height="200%" filterUnits="objectBoundingBox" id="filter-1">
            <feOffset dx="0" dy="2" in="SourceAlpha" result="shadowOffsetOuter1"></feOffset>
            <feGaussianBlur stdDeviation="1" in="shadowOffsetOuter1" result="shadowBlurOuter1"></feGaussianBlur>
            <feColorMatrix values="0 0 0 0 0   0 0 0 0 0   0 0 0 0 0  0 0 0 0.07 0" in="shadowBlurOuter1" type="matrix" result="shadowMatrixOuter1"></feColorMatrix>
            <feMerge>
                <feMergeNode in="shadowMatrixOuter1"></feMergeNode>
                <feMergeNode in="SourceGraphic"></feMergeNode>
            </feMerge>
        </filter>
    </defs>
    <g id="Page-1" stroke="none" stroke-width="1" fill="none" fill-rule="evenodd" sketch:type="MSPage">
        <g id="logo-2-+-Imported-Layers-3" sketch:type="MSLayerGroup" transform="translate(0.000000, 1.000000)">
            <g id="logo-2" transform="translate(15.000000, 0.000000)" sketch:type="MSShapeGroup">
                <circle id="Oval-162" stroke="#FFFFFF" stroke-width="1.16666667" fill="#1A68AF" cx="35.5833333" cy="35.5833333" r="20.4166667"></circle>
                <path d="M58.3874568,14.840368 C63.4626904,15.8892586 67.5615559,19.6241685 69.0764708,24.5798742 C70.5927287,29.5355799 69.2819513,34.9237347 65.6611972,38.6317845 L60.4167444,43.9997941 C58.5217578,45.9404431 57.2244104,48.3820347 56.6751195,51.0371648 L55.1561755,58.3874568 C54.107285,63.4626904 50.3737181,67.5615559 45.4166693,69.0764708 C40.4609636,70.5927287 35.0728088,69.2819513 31.3661021,65.6611972 L25.9967494,60.4167444 C24.0574434,58.5231008 21.6145088,57.2244104 18.9593787,56.6751195 L11.6090868,55.1561755 C6.53385319,54.107285 2.43498766,50.3737181 0.920072745,45.4180124 C-0.59484217,40.4609636 0.714592264,35.0741518 4.33534635,31.3661021 L9.57979914,25.9967494 C11.4747858,24.0574434 12.7734761,21.6145088 13.3214241,18.9593787 L14.840368,11.6090868 C15.8892586,6.53385319 19.6241685,2.43498766 24.5798742,0.920072745 C29.5355799,-0.59484217 34.9237347,0.714592264 38.6304414,4.33534635 L43.9997941,9.57979914 C45.9404431,11.4747858 48.3820347,12.7734761 51.0371648,13.3214241 L58.3874568,14.840368 L58.3874568,14.840368 Z M65.4288565,29.7665776 C69.238975,33.2785479 70.8290984,38.5914942 69.5747274,43.6197224 C68.3216994,48.6479506 64.4242853,52.59237 59.4108302,53.9044905 L52.1505199,55.8061922 C49.527622,56.4924701 47.1558669,57.9174034 45.3186296,59.9104298 L40.229966,65.4288565 C36.7179957,69.238975 31.4063924,70.8290984 26.3768212,69.5760704 C21.3485929,68.3216994 17.4055165,64.4242853 16.0920531,59.4108302 L14.1903514,52.1505199 C13.5040734,49.527622 12.0791401,47.1558669 10.0861138,45.3186296 L4.56768703,40.231309 C0.757568574,36.7179957 -0.832554883,31.4063924 0.421816155,26.3781642 C1.67484418,21.3485929 5.57225826,17.4055165 10.5857134,16.0920531 L17.8473667,14.1916944 C20.4702646,13.5040734 22.8406767,12.0791401 24.6779139,10.0861138 L29.7665776,4.56768703 C33.2785479,0.757568574 38.5914942,-0.832554883 43.6197224,0.421816155 C48.6479506,1.67484418 52.591027,5.57225826 53.9044905,10.5857134 L55.8061922,17.8473667 C56.4924701,20.4702646 57.9174034,22.8406767 59.9104298,24.6792569 L65.4288565,29.7665776 L65.4288565,29.7665776 Z M63.7769546,46.1862139 C65.2341201,51.1607217 63.8615642,56.5327604 60.1964908,60.1964908 C56.5314174,63.8615642 51.1593787,65.2341201 46.1862139,63.7769546 L38.983653,61.6684294 C36.3809002,60.9055999 33.6156433,60.9055999 31.0128906,61.6684294 L23.8103297,63.7769546 C18.8371648,65.2341201 13.4651261,63.8615642 9.80005272,60.1964908 C6.13632233,56.5327604 4.76242343,51.1607217 6.21958893,46.1862139 L8.32945713,38.983653 C9.09094362,36.3822432 9.09094362,33.6156433 8.32945713,31.0128906 L6.21958893,23.8103297 C4.76242343,18.8371648 6.13632233,13.4651261 9.80005272,9.80005272 C13.4651261,6.13632233 18.8371648,4.76242343 23.8103297,6.21958893 L31.0128906,8.32945713 C33.6156433,9.09094362 36.3809002,9.09094362 38.983653,8.32945713 L46.1862139,6.21958893 C51.1593787,4.76242343 56.5314174,6.13632233 60.1964908,9.80005272 C63.8615642,13.4651261 65.2341201,18.8371648 63.7769546,23.8103297 L61.6670864,31.0128906 C60.9055999,33.6156433 60.9055999,36.3822432 61.6670864,38.983653 L63.7769546,46.1862139 L63.7769546,46.1862139 Z" id="Imported-Layers" stroke="#C7C7C7" stroke-width="0.777777778" opacity="0.373367537"></path>
                <path d="M35.4140032,42.5462725 C36.0674052,42.5462725 36.6065556,42.4920656 37.032497,42.3830263 C37.4580214,42.2744039 37.799525,42.1261688 38.0570079,41.937487 C38.3142823,41.7496392 38.4923313,41.5267653 38.5915716,41.2692824 C38.690395,41.012425 38.7402237,40.7251282 38.7402237,40.4080177 C38.7402237,39.7354348 38.4233217,39.1756441 37.7897261,38.7303133 C37.155922,38.284774 36.0674052,37.8050427 34.5229247,37.2898684 C33.8497164,37.0524004 33.176508,36.7803233 32.5035082,36.4732202 C31.8302998,36.1665341 31.226518,35.780414 30.6919543,35.3150683 C30.1575991,34.8499312 29.7216503,34.2857622 29.3853589,33.6223528 C29.048442,32.9591519 28.8804005,32.1523026 28.8804005,31.201805 C28.8804005,30.2515158 29.0586579,29.3954633 29.4149642,28.633022 C29.7712705,27.8712062 30.2762289,27.222391 30.9296309,26.6878273 C31.5828243,26.1532636 32.3746625,25.7425418 33.3053537,25.4554536 C34.2358365,25.1685739 35.284949,25.024717 36.4533168,25.024717 C37.8389293,25.024717 39.0371109,25.1731606 40.0468192,25.4702563 C41.0565274,25.7671434 41.8881868,26.0938444 42.5413803,26.4501507 L41.204971,30.1030722 C40.6305861,29.806185 39.9919868,29.5439069 39.2895901,29.3160293 C38.5865679,29.0885687 37.7401059,28.9745257 36.7504125,28.9745257 C35.6412553,28.9745257 34.844622,29.1281815 34.3596785,29.4348676 C33.874318,29.7419707 33.6320547,30.2121115 33.6320547,30.8454986 C33.6320547,31.2218198 33.7212876,31.5387219 33.8993365,31.7957878 C34.0775939,32.0532707 34.3300731,32.285735 34.6567741,32.4935977 C34.9834751,32.701669 35.3591708,32.8899338 35.7851122,33.0579753 C36.2106366,33.2264337 36.6807774,33.3994789 37.1957432,33.5777363 C38.2648706,33.9738639 39.1953534,34.3645707 39.9874,34.7508993 C40.7790297,35.1368109 41.4376438,35.5873539 41.9624086,36.1019027 C42.4867564,36.6170771 42.8778802,37.2206503 43.1353631,37.9136651 C43.392429,38.6068883 43.5214832,39.4481381 43.5214832,40.4378315 C43.5214832,42.3584247 42.8482749,43.8484897 41.5020667,44.9071927 C40.1554415,45.9667297 38.126226,46.4962897 35.4140032,46.4962897 C34.5031183,46.4962897 33.6812579,46.4414573 32.9490474,46.3328349 C32.2164199,46.2237956 31.5682302,46.0901547 31.0038526,45.9321206 C30.4396836,45.7738781 29.9541146,45.6052112 29.5486051,45.4271623 C29.1426786,45.2489049 28.801175,45.0808634 28.5240942,44.9222039 L29.8308981,41.2396771 C30.4442704,41.576594 31.2014994,41.8782764 32.1027939,42.1453498 C33.0032543,42.4128401 34.1071993,42.5462725 35.4140032,42.5462725" id="Fill-1" fill="#FFFFFF" filter="url(#filter-1)"></path>
            </g>
            <g id="Imported-Layers-3" transform="translate(0.000000, 70.000000)" fill="#1A68AF" sketch:type="MSShapeGroup">
                <path d="M8.21052632,20.6736842 C8.89780702,20.6736842 9.46491228,20.6189474 9.9129386,20.5088421 C10.3605263,20.3991579 10.7197368,20.2494737 10.9905702,20.0589474 C11.2611842,19.8692632 11.4484649,19.6442105 11.5528509,19.3842105 C11.6567982,19.1248421 11.7092105,18.8347368 11.7092105,18.5145263 C11.7092105,17.8353684 11.3758772,17.2701053 10.7094298,16.8204211 C10.0427632,16.3705263 8.89780702,15.8861053 7.27324561,15.3658947 C6.56513158,15.1261053 5.85701754,14.8513684 5.14912281,14.5412632 C4.44100877,14.2315789 3.80592105,13.8416842 3.24364035,13.3717895 C2.68157895,12.9021053 2.22302632,12.3324211 1.86929825,11.6625263 C1.51491228,10.9928421 1.33815789,10.1781053 1.33815789,9.21831579 C1.33815789,8.25873684 1.52565789,7.39431579 1.9004386,6.62442105 C2.2752193,5.85515789 2.80635965,5.2 3.49364035,4.66021053 C4.18070175,4.12042105 5.01359649,3.70568421 5.99254386,3.41578947 C6.97127193,3.12610526 8.0747807,2.98084211 9.30372807,2.98084211 C10.7611842,2.98084211 12.0214912,3.13073684 13.0835526,3.43073684 C14.145614,3.73052632 15.0203947,4.06042105 15.7074561,4.42021053 L14.3017544,8.10884211 C13.6975877,7.80905263 13.0258772,7.54421053 12.2870614,7.31410526 C11.5475877,7.08442105 10.6572368,6.96926316 9.61622807,6.96926316 C8.4495614,6.96926316 7.61162281,7.12442105 7.10153509,7.43410526 C6.59100877,7.74421053 6.33618421,8.21894737 6.33618421,8.85852632 C6.33618421,9.23852632 6.43004386,9.55852632 6.61732456,9.81810526 C6.80482456,10.0781053 7.07039474,10.3128421 7.41403509,10.5227368 C7.75767544,10.7328421 8.15285088,10.9229474 8.60087719,11.0926316 C9.04846491,11.2627368 9.54298246,11.4374737 10.0846491,11.6174737 C11.2092105,12.0174737 12.1879386,12.412 13.0210526,12.8021053 C13.8537281,13.1917895 14.5464912,13.6467368 15.0984649,14.1663158 C15.65,14.6865263 16.0614035,15.296 16.3322368,15.9957895 C16.6026316,16.6957895 16.7383772,17.5452632 16.7383772,18.5446316 C16.7383772,20.484 16.0302632,21.9886316 14.6142544,23.0576842 C13.197807,24.1275789 11.0633772,24.6623158 8.21052632,24.6623158 C7.25241228,24.6623158 6.3879386,24.6069474 5.61776316,24.4972632 C4.84714912,24.3871579 4.16535088,24.2522105 3.57171053,24.0926316 C2.97828947,23.9328421 2.46754386,23.7625263 2.04100877,23.5827368 C1.61403509,23.4027368 1.25482456,23.2330526 0.963377193,23.0728421 L2.3379386,19.3543158 C2.98311404,19.6945263 3.77960526,19.9991579 4.72763158,20.2688421 C5.6747807,20.5389474 6.83596491,20.6736842 8.21052632,20.6736842" id="Fill-1"></path>
                <path d="M18.3960526,16.4755789 C18.3960526,15.0762105 18.6195175,13.8515789 19.0677632,12.8021053 C19.5153509,11.7522105 20.1032895,10.8781053 20.8326754,10.1781053 C21.5611842,9.47852632 22.3993421,8.94842105 23.3471491,8.58863158 C24.2945175,8.22884211 25.2684211,8.04863158 26.2679825,8.04863158 C28.6,8.04863158 30.4429825,8.73368421 31.7969298,10.1029474 C33.1504386,11.4726316 33.8274123,13.4869474 33.8274123,16.1454737 C33.8274123,16.4056842 33.8166667,16.6905263 33.7962719,17.0002105 C33.7752193,17.3105263 33.7541667,17.5850526 33.7337719,17.8250526 L23.1754386,17.8250526 C23.279386,18.7446316 23.7269737,19.4743158 24.5186404,20.0138947 C25.3098684,20.5538947 26.3719298,20.8237895 27.7048246,20.8237895 C28.5585526,20.8237895 29.3964912,20.7488421 30.2195175,20.5989474 C31.041886,20.4488421 31.7135965,20.2642105 32.2342105,20.044 L32.8589912,23.6726316 C32.6092105,23.7926316 32.2758772,23.9126316 31.8594298,24.0324211 C31.4425439,24.1524211 30.979386,24.2574737 30.4692982,24.3473684 C29.9587719,24.4372632 29.4122807,24.5124211 28.829386,24.5722105 C28.2460526,24.6322105 27.6629386,24.6623158 27.0800439,24.6623158 C25.6013158,24.6623158 24.3155702,24.4522105 23.2223684,24.0324211 C22.1289474,23.6126316 21.2230263,23.0383158 20.5046053,22.3082105 C19.7861842,21.5785263 19.2550439,20.7141053 18.9114035,19.7143158 C18.5677632,18.7149474 18.3960526,17.6351579 18.3960526,16.4755789 L18.3960526,16.4755789 Z M29.3291667,14.7663158 C29.308114,14.3865263 29.2403509,14.0164211 29.1260965,13.6566316 C29.0114035,13.2966316 28.8342105,12.9772632 28.5951754,12.6968421 C28.3554825,12.4170526 28.0532895,12.1871579 27.6892544,12.0071579 C27.3247807,11.8273684 26.8717105,11.7372632 26.3304825,11.7372632 C25.8096491,11.7372632 25.3620614,11.8225263 24.9870614,11.9922105 C24.6122807,12.1625263 24.3,12.3873684 24.05,12.6669474 C23.8002193,12.9471579 23.6072368,13.272 23.4721491,13.6416842 C23.3366228,14.0117895 23.2379386,14.3865263 23.1754386,14.7663158 L29.3291667,14.7663158 L29.3291667,14.7663158 Z" id="Fill-2"></path>
                <path d="M42.2390351,8.04863158 C43.6133772,8.04863158 44.7585526,8.19873684 45.675,8.49852632 C46.5912281,8.79852632 47.3254386,9.22863158 47.8774123,9.788 C48.4289474,10.348 48.8195175,11.028 49.0486842,11.8273684 C49.2778509,12.6271579 49.3923246,13.5168421 49.3923246,14.4962105 L49.3923246,23.7926316 C48.7256579,23.9328421 47.7993421,24.0976842 46.6122807,24.2873684 C45.4252193,24.4772632 43.9881579,24.5722105 42.3015351,24.5722105 C41.2392544,24.5722105 40.2758772,24.4823158 39.4120614,24.3025263 C38.5475877,24.1225263 37.8032895,23.8277895 37.1785088,23.4176842 C36.5537281,23.0082105 36.0745614,22.4730526 35.7414474,21.8132632 C35.408114,21.1534737 35.2416667,20.344 35.2416667,19.3842105 C35.2416667,18.4650526 35.4339912,17.6852632 35.8195175,17.0452632 C36.2048246,16.4056842 36.7201754,15.8957895 37.3660088,15.5157895 C38.0111842,15.1364211 38.7506579,14.8612632 39.5837719,14.6911579 C40.4164474,14.5216842 41.2809211,14.4362105 42.1765351,14.4362105 C42.7802632,14.4362105 43.3166667,14.4614737 43.785307,14.5113684 C44.2537281,14.5614737 44.6335526,14.6265263 44.9254386,14.7063158 L44.9254386,14.2863158 C44.9254386,13.5267368 44.6857456,12.9170526 44.2067982,12.4570526 C43.7276316,11.9972632 42.8949561,11.7673684 41.7078947,11.7673684 C40.9162281,11.7673684 40.135307,11.8225263 39.3651316,11.9324211 C38.5945175,12.0423158 37.9282895,12.1974737 37.3660088,12.3970526 L36.7723684,8.79852632 C37.0427632,8.71894737 37.3813596,8.63368421 37.7877193,8.54357895 C38.1936404,8.45368421 38.6359649,8.37389474 39.1151316,8.30357895 C39.5940789,8.23389474 40.0991228,8.17389474 40.6302632,8.12378947 C41.1611842,8.07410526 41.6971491,8.04863158 42.2390351,8.04863158 L42.2390351,8.04863158 Z M42.6138158,21.1235789 C43.0717105,21.1235789 43.5089912,21.1136842 43.9258772,21.0934737 C44.3421053,21.0741053 44.6754386,21.044 44.9254386,21.0037895 L44.9254386,17.6149474 C44.7379386,17.5751579 44.4567982,17.5353684 44.0820175,17.4951579 C43.7072368,17.4551579 43.3635965,17.4349474 43.0510965,17.4349474 C42.6138158,17.4349474 42.2024123,17.4604211 41.8173246,17.5101053 C41.4315789,17.5602105 41.0934211,17.6551579 40.8019737,17.7949474 C40.5100877,17.9349474 40.2813596,18.1248421 40.114693,18.3646316 C39.947807,18.6046316 39.8649123,18.9046316 39.8649123,19.2644211 C39.8649123,19.9644211 40.1094298,20.4488421 40.5989035,20.7187368 C41.0879386,20.9886316 41.7596491,21.1235789 42.6138158,21.1235789 L42.6138158,21.1235789 Z" id="Fill-3"></path>
                <path d="M61.4828947,12.4269474 C61.0657895,12.3273684 60.5769737,12.2223158 60.0144737,12.1122105 C59.4524123,12.0025263 58.8480263,11.9473684 58.2028509,11.9473684 C57.9109649,11.9473684 57.5625,11.9726316 57.1563596,12.0223158 C56.7504386,12.0724211 56.4427632,12.1273684 56.2348684,12.1871579 L56.2348684,24.2423158 L51.5820175,24.2423158 L51.5820175,9.30842105 C52.4140351,9.02863158 53.3971491,8.76378947 54.5322368,8.51368421 C55.6671053,8.264 56.9324561,8.13873684 58.3278509,8.13873684 C58.5776316,8.13873684 58.879386,8.15389474 59.2337719,8.18378947 C59.5875,8.21389474 59.9412281,8.25410526 60.2958333,8.30357895 C60.6495614,8.35389474 61.0035088,8.41389474 61.3576754,8.48357895 C61.7118421,8.55389474 62.0138158,8.63873684 62.2635965,8.73852632 L61.4828947,12.4269474" id="Fill-4"></path>
                <path d="M62.4530702,16.3555789 C62.4530702,15.2157895 62.6453947,14.1416842 63.0307018,13.1317895 C63.4157895,12.1225263 63.972807,11.2425263 64.7019737,10.4928421 C65.4309211,9.74315789 66.3157895,9.14842105 67.3572368,8.70842105 C68.3982456,8.26905263 69.585307,8.04863158 70.9182018,8.04863158 C71.7929825,8.04863158 72.5945175,8.12378947 73.3236842,8.27368421 C74.0524123,8.42378947 74.7605263,8.63873684 75.4475877,8.91831579 L74.479386,12.4871579 C74.0421053,12.3273684 73.5629386,12.1871579 73.0425439,12.0671579 C72.5217105,11.9473684 71.9385965,11.8873684 71.2932018,11.8873684 C69.9188596,11.8873684 68.8927632,12.2972632 68.2162281,13.1168421 C67.5392544,13.9368421 67.2010965,15.0164211 67.2010965,16.3555789 C67.2010965,17.7753684 67.5182018,18.8745263 68.1539474,19.6541053 C68.7888158,20.4341053 69.897807,20.8237895 71.4807018,20.8237895 C72.0427632,20.8237895 72.6467105,20.7741053 73.2923246,20.6736842 C73.9377193,20.5741053 74.5311404,20.4143158 75.072807,20.1941053 L75.7289474,23.8526316 C75.1870614,24.0728421 74.5107456,24.2621053 73.6984649,24.4223158 C72.8864035,24.5821053 71.9907895,24.6623158 71.0120614,24.6623158 C69.5127193,24.6623158 68.2210526,24.4471579 67.1385965,24.0174737 C66.0554825,23.5877895 65.1653509,23.0031579 64.4677632,22.2631579 C63.7697368,21.5237895 63.2596491,20.6490526 62.9372807,19.6391579 C62.6140351,18.6298947 62.4530702,17.5353684 62.4530702,16.3555789" id="Fill-5"></path>
                <path d="M83.7905702,24.5423158 C82.4368421,24.5223158 81.3385965,24.3821053 80.4951754,24.1225263 C79.6517544,23.8629474 78.9848684,23.4978947 78.4960526,23.028 C78.0063596,22.5583158 77.6730263,21.9886316 77.4962719,21.3185263 C77.3192982,20.6490526 77.2307018,19.8941053 77.2307018,19.0545263 L77.2307018,1.69136842 L81.885307,0.971578947 L81.885307,18.1547368 C81.885307,18.5549474 81.9164474,18.9149474 81.9789474,19.2343158 C82.0414474,19.5545263 82.1609649,19.8242105 82.3381579,20.044 C82.5149123,20.2642105 82.7701754,20.4442105 83.1035088,20.5837895 C83.4364035,20.7237895 83.8844298,20.8138947 84.4469298,20.8538947 L83.7905702,24.5423158" id="Fill-6"></path>
                <path d="M85.2138158,16.4755789 C85.2138158,15.0762105 85.4372807,13.8515789 85.885307,12.8021053 C86.3328947,11.7522105 86.9210526,10.8781053 87.6502193,10.1781053 C88.3789474,9.47852632 89.2171053,8.94842105 90.1649123,8.58863158 C91.1122807,8.22884211 92.0859649,8.04863158 93.0855263,8.04863158 C95.4177632,8.04863158 97.2605263,8.73368421 98.614693,10.1029474 C99.9682018,11.4726316 100.645175,13.4869474 100.645175,16.1454737 C100.645175,16.4056842 100.63443,16.6905263 100.613816,17.0002105 C100.592982,17.3105263 100.57193,17.5850526 100.551316,17.8250526 L89.9932018,17.8250526 C90.0969298,18.7446316 90.5445175,19.4743158 91.3364035,20.0138947 C92.1274123,20.5538947 93.189693,20.8237895 94.5225877,20.8237895 C95.3763158,20.8237895 96.2142544,20.7488421 97.0372807,20.5989474 C97.8596491,20.4488421 98.5311404,20.2642105 99.0519737,20.044 L99.6767544,23.6726316 C99.4267544,23.7926316 99.0934211,23.9126316 98.6769737,24.0324211 C98.260307,24.1524211 97.7971491,24.2574737 97.2870614,24.3473684 C96.7765351,24.4372632 96.2298246,24.5124211 95.6471491,24.5722105 C95.0638158,24.6322105 94.4807018,24.6623158 93.8975877,24.6623158 C92.4188596,24.6623158 91.1333333,24.4522105 90.0399123,24.0324211 C88.9464912,23.6126316 88.0405702,23.0383158 87.3221491,22.3082105 C86.6039474,21.5785263 86.072807,20.7141053 85.7291667,19.7143158 C85.3855263,18.7149474 85.2138158,17.6351579 85.2138158,16.4755789 L85.2138158,16.4755789 Z M96.1469298,14.7663158 C96.1258772,14.3865263 96.058114,14.0164211 95.9436404,13.6566316 C95.8291667,13.2966316 95.6519737,12.9772632 95.4129386,12.6968421 C95.1732456,12.4170526 94.8710526,12.1871579 94.5070175,12.0071579 C94.1423246,11.8273684 93.6892544,11.7372632 93.1480263,11.7372632 C92.627193,11.7372632 92.1796053,11.8225263 91.8048246,11.9922105 C91.4298246,12.1625263 91.1175439,12.3873684 90.8677632,12.6669474 C90.6177632,12.9471579 90.425,13.272 90.289693,13.6416842 C90.1541667,14.0117895 90.0554825,14.3865263 89.9932018,14.7663158 L96.1469298,14.7663158 L96.1469298,14.7663158 Z" id="Fill-7"></path>
            </g>
        </g>
    </g>
</svg>