<svg width="269" height="47" viewBox="0 0 269 47" fill="none" xmlns="http://www.w3.org/2000/svg">
<g clip-path="url(#clip0)">
<path fill-rule="evenodd" clip-rule="evenodd" d="M112.646 39.2363C113.033 38.8917 113.378 38.504 113.68 38.0732C113.981 37.6424 114.132 37.147 114.132 36.587C114.132 35.8978 113.884 35.3162 113.389 34.8424C112.893 34.3685 112.29 33.97 111.579 33.6469C110.869 33.3239 110.126 33.0762 109.35 32.9038C108.575 32.7315 107.929 32.5808 107.412 32.4515C105.99 32.1069 104.655 31.6869 103.405 31.1915C102.156 30.6961 101.068 30.093 100.142 29.3822C99.2161 28.6714 98.4838 27.8314 97.9453 26.8622C97.4069 25.8929 97.1376 24.7406 97.1376 23.4052C97.1376 22.1559 97.4392 20.982 98.0423 19.8835C98.6454 18.7851 99.4531 17.8158 100.465 16.9758C101.478 16.1358 102.662 15.4681 104.019 14.9727C105.376 14.4773 106.809 14.2296 108.316 14.2296C109.652 14.2296 110.923 14.4234 112.129 14.8111C113.335 15.1988 114.423 15.7265 115.392 16.3942C116.361 17.0619 117.18 17.8697 117.847 18.8174C118.515 19.7651 118.957 20.8205 119.172 21.9836L113.55 23.3406C113.292 22.3067 112.732 21.4451 111.87 20.7559C111.009 20.0666 109.824 19.722 108.316 19.722C107.799 19.722 107.261 19.7974 106.701 19.9482C106.141 20.0989 105.624 20.3251 105.15 20.6266C104.676 20.9282 104.278 21.2943 103.955 21.7251C103.632 22.1559 103.47 22.6513 103.47 23.2113C103.47 23.8144 103.653 24.3313 104.019 24.7621C104.385 25.1929 104.827 25.5483 105.344 25.8283C105.861 26.1083 106.421 26.3345 107.024 26.5068C107.627 26.6791 108.187 26.8299 108.704 26.9591C110.987 27.5191 112.883 28.1222 114.39 28.7684C115.898 29.4145 117.104 30.1253 118.009 30.9007C118.914 31.6761 119.549 32.5269 119.915 33.4531C120.281 34.3793 120.464 35.4239 120.464 36.587C120.464 37.9655 120.152 39.2578 119.527 40.464C118.903 41.6702 118.041 42.7148 116.943 43.5979C115.844 44.481 114.53 45.1703 113.001 45.6657C111.472 46.1611 109.824 46.4088 108.058 46.4088C105.387 46.4088 103.007 45.7518 100.918 44.438C98.8284 43.1241 97.4176 41.3687 96.6853 39.1717L101.984 36.7809C102.673 38.2886 103.556 39.3117 104.633 39.8502C105.71 40.3886 106.938 40.6579 108.316 40.6579C110.039 40.6579 111.483 40.184 112.646 39.2363ZM140.976 45.6334C139.209 46.2365 137.465 46.6026 135.742 46.7319C134.018 46.8611 132.468 46.6134 131.089 45.9888C129.711 45.3641 128.591 44.2657 127.729 42.6933C126.868 41.1209 126.437 38.9132 126.437 36.0701V21.728H121.301V14.9043C121.301 14.9043 121.753 14.9043 122.704 14.9043C124.383 14.9043 125.88 14.4942 126.937 12.79C127.385 12.0672 127.444 11.3279 127.498 9.32398V6.95764H132.879V14.9043H139.223V21.728H132.879L132.705 37.0393C132.705 38.0732 132.823 38.8917 133.06 39.4948C133.297 40.0979 133.695 40.5502 134.255 40.8517C134.815 41.1533 135.548 41.304 136.452 41.304C137.357 41.304 138.455 41.2179 139.748 41.0456L140.976 45.6334ZM160.794 20.4974C160.493 20.3682 160.191 20.2389 159.89 20.1097C159.631 20.0236 159.33 19.9374 158.985 19.8512C158.641 19.7651 158.274 19.722 157.887 19.722C156.637 19.722 155.474 19.9266 154.397 20.3359C153.32 20.7451 152.394 21.2943 151.619 21.9836C150.843 22.6728 150.23 23.4805 149.777 24.4067C149.325 25.3329 149.099 26.3129 149.099 27.3468L149.034 46.3904H142.766V14.7465H147.742L149.034 18.1712C149.896 16.9219 151.027 15.9204 152.427 15.1665C153.827 14.4127 155.582 14.0357 157.693 14.0357C159.071 14.0357 160.644 14.2296 162.41 14.6173L160.794 20.4974ZM177.059 46.4734C174.819 46.4734 172.719 46.0534 170.759 45.2134C168.799 44.3733 167.087 43.221 165.622 41.7564C164.158 40.2917 163.005 38.5686 162.165 36.587C161.325 34.6054 160.905 32.4946 160.905 30.2546C160.905 28.0145 161.304 25.9037 162.101 23.9221C162.898 21.9405 163.975 20.2174 165.331 18.7528C166.688 17.2881 168.272 16.1358 170.081 15.2958C171.89 14.4557 173.829 14.0357 175.896 14.0357C178.007 14.0357 179.956 14.4019 181.744 15.1342C183.532 15.8665 185.083 17.0081 186.397 18.5589C187.71 20.1097 188.734 22.0805 189.466 24.4713C190.198 26.8622 190.564 29.7161 190.564 33.0331H167.561C167.862 34.1531 168.336 35.1977 168.982 36.167C169.629 37.1363 170.393 37.9763 171.276 38.6871C172.159 39.3978 173.15 39.9471 174.249 40.3348C175.347 40.7225 176.499 40.9163 177.706 40.9163C179.343 40.9163 180.861 40.6148 182.261 40.0117C183.661 39.4086 184.857 38.6117 185.847 37.6209L189.724 41.4979C188.217 43.0056 186.375 44.2118 184.2 45.1164C182.024 46.0211 179.644 46.4734 177.059 46.4734ZM175.896 19.722C174.906 19.722 173.969 19.9159 173.086 20.3036C172.202 20.6913 171.384 21.2297 170.63 21.919C169.876 22.6082 169.23 23.4267 168.692 24.3744C168.153 25.3221 167.755 26.356 167.496 27.476H183.844C183.758 26.4422 183.521 25.4514 183.133 24.5037C182.746 23.5559 182.207 22.7267 181.518 22.0159C180.829 21.3051 180.021 20.7451 179.095 20.3359C178.169 19.9266 177.103 19.722 175.896 19.722ZM224.128 14.7465V46.3904H218.83L217.86 42.1441C216.783 43.5656 215.405 44.6426 213.725 45.3749C212.045 46.1072 210.343 46.4734 208.62 46.4734C206.466 46.4734 204.452 46.0534 202.578 45.2134C200.705 44.3733 199.068 43.221 197.668 41.7564C196.268 40.2917 195.158 38.5686 194.34 36.587C193.521 34.6054 193.112 32.4946 193.112 30.2546C193.112 28.0145 193.521 25.9037 194.34 23.9221C195.158 21.9405 196.268 20.2174 197.668 18.7528C199.068 17.2881 200.705 16.1358 202.578 15.2958C204.452 14.4557 206.466 14.0357 208.62 14.0357C210.343 14.0357 212.002 14.3696 213.596 15.0373C215.19 15.705 216.611 16.7496 217.86 18.1712L218.83 14.7465H224.128ZM208.62 40.9163C209.869 40.9163 211.054 40.6363 212.174 40.0763C213.294 39.5163 214.263 38.7517 215.082 37.7824C215.9 36.8132 216.547 35.6824 217.02 34.39C217.494 33.0977 217.731 31.7192 217.731 30.2546C217.731 28.7899 217.494 27.4114 217.02 26.1191C216.547 24.8267 215.9 23.6959 215.082 22.7267C214.263 21.7574 213.294 20.9928 212.174 20.4328C211.054 19.8728 209.869 19.5928 208.62 19.5928C207.371 19.5928 206.186 19.8728 205.066 20.4328C203.946 20.9928 202.977 21.7574 202.158 22.7267C201.34 23.6959 200.694 24.8267 200.22 26.1191C199.746 27.4114 199.509 28.7899 199.509 30.2546C199.509 31.7192 199.746 33.0977 200.22 34.39C200.694 35.6824 201.34 36.8132 202.158 37.7824C202.977 38.7517 203.946 39.5163 205.066 40.0763C206.186 40.6363 207.371 40.9163 208.62 40.9163ZM234.947 46.3904H228.679V14.7465H233.655L234.947 17.3958C235.722 16.4912 236.649 15.705 237.725 15.0373C238.802 14.3696 240.116 14.0357 241.667 14.0357C242.27 14.0357 242.949 14.1111 243.703 14.2619C244.456 14.4127 245.232 14.6711 246.029 15.0373C246.826 15.4034 247.59 15.8988 248.323 16.5235C249.055 17.1481 249.68 17.9558 250.197 18.9466C250.929 17.6112 252.038 16.4589 253.524 15.4896C255.01 14.5203 256.594 14.0357 258.274 14.0357C259.394 14.0357 260.578 14.208 261.828 14.5527C263.077 14.8973 264.24 15.5434 265.317 16.4912C266.394 17.4389 267.277 18.7527 267.966 20.4328C268.655 22.1128 269 24.2883 269 26.9591V46.3904H263.12V26.8945C263.12 24.2236 262.571 22.3605 261.472 21.3051C260.374 20.2497 258.92 19.722 257.111 19.722C255.732 19.722 254.526 20.3036 253.492 21.4667C252.458 22.6298 251.941 24.4606 251.941 26.9591V46.3904H246.061V26.8945C246.061 24.2236 245.512 22.3605 244.413 21.3051C243.315 20.2497 241.861 19.722 240.052 19.722C238.759 19.722 237.629 20.2174 236.659 21.2082C235.69 22.199 235.119 23.7498 234.947 25.8606V46.3904Z" fill="black"/>
<path fill-rule="evenodd" clip-rule="evenodd" d="M60.3457 15.0698L89.892 12.9753C91.8423 12.8371 93.0702 15.035 91.93 16.6232L71.2611 45.4128C70.8277 46.0165 70.1298 46.3746 69.3865 46.3746H23.0366C22.2944 46.3746 21.5975 46.0176 21.1636 45.4151L0.439853 16.6255C-0.703174 15.0375 0.524778 12.8366 2.47667 12.9753L31.933 15.0701L44.5141 1.00458C45.436 -0.0260638 47.0515 -0.0200637 47.9658 1.01773L60.3457 15.0698ZM66.5332 41.8101L47.3579 34.6439V41.8101H66.5332ZM45.0502 41.8101V34.6439L25.8749 41.8101H45.0502ZM42.8375 32.932L23.2459 40.2452L8.83266 20.2103L42.8375 32.932ZM49.5307 32.932L69.1223 40.2452L83.5355 20.2103L49.5307 32.932ZM45.0686 31.2598V7.14664L29.0497 25.2297L45.0686 31.2598ZM47.3579 31.2598V7.14964L63.3771 25.2297L47.3579 31.2598ZM24.352 23.5628L28.0377 19.4213L10.0311 18.1308L24.352 23.5628ZM67.8821 23.5628L64.1966 19.4213L82.2033 18.1308L67.8821 23.5628Z" fill="#005FFF"/>
</g>
<defs>
<clipPath id="clip0">
<rect width="269" height="47" fill="white" transform="translate(0 0.000488281)"/>
</clipPath>
</defs>
</svg>
