<svg width="1675" height="311" viewBox="0 0 1675 311" fill="none" xmlns="http://www.w3.org/2000/svg">
<path fill-rule="evenodd" clip-rule="evenodd" d="M1429.35 306.24C1429.35 306.38 1429.38 306.518 1429.43 306.648C1429.49 306.777 1429.57 306.895 1429.66 306.994C1429.87 307.193 1430.14 307.305 1430.43 307.306H1465.17C1465.31 307.307 1465.45 307.28 1465.58 307.227C1465.71 307.173 1465.83 307.094 1465.93 306.994C1466.03 306.895 1466.11 306.777 1466.16 306.648C1466.22 306.518 1466.24 306.38 1466.24 306.24V199.016C1466.06 191.713 1467.73 184.482 1471.08 177.994C1474.11 172.256 1478.57 167.401 1484.04 163.906C1489.3 160.525 1495.44 158.742 1501.7 158.774C1511.15 158.774 1518.71 161.672 1524.53 167.398C1530.35 173.124 1533.26 180.702 1533.26 190.251V306.169C1533.27 306.452 1533.39 306.722 1533.59 306.924C1533.69 307.024 1533.81 307.103 1533.94 307.156C1534.07 307.21 1534.21 307.237 1534.35 307.236H1569.01C1569.15 307.236 1569.29 307.208 1569.42 307.155C1569.55 307.101 1569.66 307.023 1569.76 306.924C1569.87 306.828 1569.95 306.711 1570.01 306.581C1570.06 306.451 1570.09 306.311 1570.09 306.169V195.182C1570.09 184.435 1573.17 175.73 1579.22 169.018C1585.28 162.306 1593.75 158.874 1604.82 158.874C1613.16 158.687 1621.29 161.521 1627.71 166.855C1633.95 172.057 1637.2 180.54 1637.2 192.586V306.3C1637.2 306.44 1637.22 306.579 1637.28 306.708C1637.33 306.838 1637.41 306.956 1637.51 307.055C1637.71 307.253 1637.99 307.365 1638.27 307.367H1673.01C1673.3 307.367 1673.57 307.255 1673.78 307.055C1673.88 306.956 1673.95 306.838 1674.01 306.708C1674.06 306.579 1674.09 306.44 1674.09 306.3V185.24C1674.09 164.379 1668.91 148.61 1658.33 138.074C1647.75 127.538 1634.38 122.365 1617.95 122.365C1604.92 122.365 1593.66 125.317 1584.14 131.221C1575.16 136.6 1568.02 144.58 1563.68 154.105H1563.25C1559.63 144.791 1553.33 136.76 1545.14 131.03C1536.85 125.247 1526.65 122.362 1514.54 122.375C1502.58 122.375 1492.28 125.257 1483.62 131.02C1479.2 133.919 1475.29 137.554 1472.09 141.767L1464.75 125.374C1464.67 125.185 1464.53 125.027 1464.35 124.921C1464.18 124.817 1463.97 124.761 1463.77 124.76H1430.45C1430.16 124.76 1429.89 124.872 1429.68 125.072C1429.58 125.173 1429.51 125.292 1429.45 125.423C1429.4 125.555 1429.37 125.695 1429.37 125.837L1429.35 306.24Z" fill="#1D252F"/>
<path fill-rule="evenodd" clip-rule="evenodd" d="M898.488 306.504C898.489 306.832 898.619 307.147 898.851 307.38C899.08 307.61 899.391 307.74 899.716 307.742H934.484C934.81 307.74 935.121 307.61 935.35 307.38C935.581 307.147 935.711 306.832 935.712 306.504V196.624C935.585 189.482 937.452 182.445 941.106 176.307C944.616 170.367 949.678 165.497 955.748 162.218C961.987 158.807 967.099 157.086 975.13 157.076C979.65 157.076 984.167 157.348 988.655 157.891V157.891C991.1 158.152 993.526 158.566 995.92 159.129C996.106 159.169 996.298 159.169 996.484 159.129C996.671 159.088 996.846 159.005 996.997 158.887C997.149 158.775 997.27 158.626 997.349 158.455C997.438 158.284 997.482 158.094 997.48 157.901V124.21C997.483 123.907 997.375 123.614 997.178 123.384C996.985 123.152 996.712 123.001 996.413 122.962C994.662 122.72 992.257 122.529 989.228 122.338C986.199 122.147 983.683 122.106 981.49 122.106C970.782 122.106 960.166 125.015 951.652 130.831C947.282 133.77 943.466 137.46 940.381 141.73L934.424 125.629C934.34 125.393 934.185 125.189 933.981 125.045C933.776 124.899 933.529 124.821 933.277 124.823H899.686C899.361 124.825 899.05 124.955 898.821 125.186C898.588 125.422 898.458 125.74 898.458 126.071L898.488 306.504Z" fill="#1D252F"/>
<path d="M741.58 220.521C733.801 212.36 722.228 206.432 706.208 202.477L679.963 196.057C671.329 193.873 665.049 191.106 661.295 187.826C657.793 184.807 656.093 180.781 656.093 175.649C656.093 169.742 658.709 165.032 664.143 161.249C669.738 157.223 676.883 155.211 685.377 155.211C691.576 155.211 696.768 156.267 700.834 158.371C704.623 160.251 707.908 163.012 710.414 166.421C710.776 166.914 711.118 167.357 711.42 167.77C713.142 169.726 714.425 172.029 715.184 174.522C715.382 175.164 715.803 175.713 716.371 176.072C716.977 176.43 717.695 176.548 718.384 176.404L745.414 169.853C745.772 169.784 746.113 169.647 746.42 169.45C746.726 169.24 746.986 168.969 747.185 168.655C747.38 168.349 747.513 168.007 747.577 167.649C747.653 167.287 747.653 166.914 747.577 166.552V166.421C744.347 157.103 740.694 146.546 729.161 135.658L729.071 135.578C718.344 126.963 703.581 122.586 685.185 122.586C672.466 122.586 660.974 124.911 651.031 129.489C641.55 133.605 633.36 140.213 627.332 148.609C621.566 156.831 618.648 166.542 618.658 177.491C618.658 190.673 622.582 201.743 630.331 210.417C638.079 219.092 650.045 225.271 665.945 229.135L693.9 235.676C701.276 237.457 706.741 240.084 710.182 243.485C711.796 244.999 713.072 246.837 713.926 248.879C714.792 250.938 715.21 253.157 715.153 255.39C715.153 261.337 712.416 266.288 706.781 270.485C700.985 274.842 693.246 276.955 683.122 276.955C674.065 276.955 666.669 274.942 661.144 270.917C654.704 266.248 651.273 261.226 649.672 254.112C649.517 253.442 649.11 252.859 648.535 252.481C647.964 252.094 647.264 251.942 646.583 252.059L616.545 263.189C615.901 263.318 615.325 263.676 614.924 264.195C614.713 264.497 614.566 264.84 614.492 265.201C614.411 265.556 614.411 265.924 614.492 266.278V266.429C618.225 279.572 624.384 288.115 636.469 296.89C648.555 305.665 664.334 309.972 683.374 309.972C697.009 309.972 709.237 307.537 719.692 302.727C730.148 297.917 738.42 291.184 744.457 282.651C750.496 273.903 753.661 263.492 753.514 252.864C753.514 239.691 749.489 228.833 741.58 220.521Z" fill="#1D252F"/>
<path d="M868.018 304.456L862.172 277.718C862.141 277.56 862.078 277.41 861.988 277.277C861.898 277.144 861.783 277.031 861.648 276.943C861.375 276.773 861.048 276.712 860.732 276.772L856.214 277.638C854.033 278.004 851.824 278.176 849.613 278.151C846.404 278.182 843.214 277.657 840.183 276.601C837.375 275.452 835.041 273.383 833.562 270.734C831.861 267.846 830.925 263.378 830.925 257.169V158.278H865.869C866.197 158.277 866.512 158.147 866.745 157.916C866.975 157.687 867.106 157.375 867.107 157.05V126.157C867.107 125.994 867.075 125.833 867.013 125.683C866.951 125.532 866.86 125.396 866.745 125.281C866.512 125.05 866.197 124.92 865.869 124.919H830.915V82.3012C830.915 82.1387 830.883 81.9776 830.821 81.8274C830.759 81.6772 830.668 81.5407 830.553 81.4257C830.438 81.3108 830.301 81.2196 830.151 81.1575C830.001 81.0953 829.84 81.0634 829.678 81.0635H797.314C797.152 81.0634 796.991 81.0953 796.841 81.1575C796.69 81.2196 796.554 81.3108 796.439 81.4257C796.324 81.5407 796.232 81.6772 796.17 81.8274C796.108 81.9776 796.076 82.1387 796.076 82.3012V113.437C796.076 116.495 794.862 119.429 792.699 121.591C790.536 123.754 787.603 124.969 784.544 124.969H770.878C770.633 125.001 770.404 125.11 770.224 125.281C770.109 125.396 770.018 125.532 769.956 125.683C769.894 125.833 769.862 125.994 769.862 126.157V157.05C769.863 157.375 769.994 157.687 770.224 157.916C770.453 158.147 770.764 158.277 771.089 158.278H796.067V263.942C796.067 274.156 798.381 283.062 803.111 289.995C807.646 296.717 814.032 301.981 821.496 305.15C829.158 308.513 837.452 310.192 845.819 310.071C850.27 309.993 854.701 309.453 859.042 308.461C861.831 307.813 864.566 306.952 867.223 305.885C867.507 305.792 867.745 305.594 867.887 305.331C868.04 305.067 868.087 304.754 868.018 304.456Z" fill="#1D252F"/>
<path d="M1296.99 310.092C1272.07 310.065 1248.18 300.155 1230.57 282.536C1212.95 264.917 1203.04 241.029 1203.01 216.112C1203.04 191.196 1212.95 167.309 1230.57 149.69C1248.19 132.072 1272.07 122.161 1296.99 122.132C1321.91 122.161 1345.79 132.072 1363.41 149.69C1381.03 167.309 1390.94 191.196 1390.97 216.112C1390.94 241.028 1381.03 264.915 1363.41 282.533C1345.79 300.152 1321.91 310.063 1296.99 310.092V310.092ZM1296.99 158.359C1281.68 158.375 1267 164.465 1256.17 175.292C1245.34 186.119 1239.25 200.8 1239.24 216.112C1239.25 231.424 1245.34 246.104 1256.17 256.931C1267 267.759 1281.68 273.848 1296.99 273.864C1312.3 273.848 1326.98 267.759 1337.81 256.931C1348.64 246.104 1354.73 231.424 1354.74 216.112C1354.72 200.801 1348.63 186.122 1337.81 175.295C1326.98 164.469 1312.3 158.378 1296.99 158.359V158.359Z" fill="#1D252F"/>
<path d="M1392.29 306.297C1392.29 306.564 1392.18 306.82 1391.99 307.009C1391.8 307.198 1391.55 307.304 1391.28 307.304H1361.09C1360.8 307.288 1360.52 307.184 1360.29 307.003C1360.06 306.823 1359.9 306.576 1359.81 306.297L1355.32 289.924C1355.15 289.265 1355.07 288.59 1355.05 287.912V144.824C1355.06 144.145 1355.15 143.471 1355.31 142.811L1359.82 125.774C1359.9 125.494 1360.07 125.246 1360.29 125.065C1360.52 124.884 1360.8 124.78 1361.09 124.768H1391.28C1391.55 124.768 1391.8 124.874 1391.99 125.062C1392.18 125.251 1392.29 125.507 1392.29 125.774V306.297Z" fill="#1D252F"/>
<path d="M1093.91 309.824C1072.12 309.761 1051.1 301.733 1034.82 287.252C1016.1 270.869 1004.63 247.07 1002.46 222.063C1000.21 197.406 1007.85 172.863 1023.69 153.834C1031.37 144.551 1040.83 136.887 1051.5 131.288C1062.17 125.689 1073.85 122.267 1085.86 121.22C1098.41 120.06 1111.07 121.569 1123.01 125.649C1134.94 129.728 1145.87 136.284 1155.09 144.888C1172.67 161.392 1182.35 182.056 1182.35 206.339V226.656C1182.36 227.13 1182.17 227.585 1181.84 227.922C1181.51 228.26 1181.06 228.452 1180.58 228.458L1039.57 227.502C1039.45 227.5 1039.33 227.525 1039.23 227.576C1039.12 227.626 1039.02 227.7 1038.95 227.792C1038.88 227.885 1038.82 227.993 1038.8 228.108C1038.77 228.223 1038.77 228.343 1038.8 228.458C1041.48 240.976 1048.06 251.166 1057.77 259.669C1063.32 264.63 1069.82 268.402 1076.88 270.753C1083.95 273.103 1091.41 273.982 1098.83 273.335C1116.46 273.335 1131.2 262.808 1138.32 250.38C1138.54 250 1138.89 249.719 1139.32 249.597C1139.74 249.475 1140.19 249.522 1140.58 249.726L1174.59 261.103C1175 261.327 1175.31 261.703 1175.44 262.149C1175.57 262.596 1175.53 263.077 1175.31 263.488C1162.68 286.946 1132.04 309.472 1101.93 309.472C1099.24 309.706 1096.57 309.824 1093.91 309.824ZM1044.2 192.361L1142.46 193.005C1142.58 193.005 1142.7 192.976 1142.81 192.921C1142.92 192.865 1143.01 192.785 1143.08 192.687C1143.15 192.589 1143.2 192.475 1143.22 192.356C1143.24 192.236 1143.23 192.114 1143.19 191.999C1140.51 185.82 1136.48 177.111 1131.21 172.371C1125.48 167.312 1118.77 163.482 1111.5 161.118C1104.23 158.753 1096.56 157.905 1088.95 158.625C1074.12 159.785 1060.34 166.702 1050.56 177.896C1047.77 181.106 1045.41 187.651 1043.51 191.304C1043.46 191.419 1043.44 191.545 1043.45 191.671C1043.45 191.796 1043.5 191.918 1043.56 192.024C1043.63 192.13 1043.73 192.217 1043.84 192.278C1043.95 192.339 1044.07 192.371 1044.2 192.371V192.361Z" fill="#1D252F"/>
<path fill-rule="evenodd" clip-rule="evenodd" d="M2.75505 129.67L66.3217 217.446C67.3144 218.819 68.6015 219.934 70.0813 220.701C71.561 221.469 73.1928 221.869 74.8472 221.869C76.5016 221.869 78.1333 221.469 79.6131 220.701C81.0928 219.934 82.38 218.819 83.3727 217.446L139.236 140.304C144.266 133.354 139.97 123.389 131.624 122.644L12.194 112.013C3.00777 111.194 -2.78043 122.031 2.75505 129.67Z" fill="#005FFF"/>
<path fill-rule="evenodd" clip-rule="evenodd" d="M2.75505 129.67L66.3217 217.446C67.3144 218.819 68.6015 219.934 70.0813 220.701C71.561 221.469 73.1928 221.869 74.8472 221.869C76.5016 221.869 78.1333 221.469 79.6131 220.701C81.0928 219.934 82.38 218.819 83.3727 217.446L139.236 140.304C144.266 133.354 139.97 123.389 131.624 122.644L12.194 112.013C3.00777 111.194 -2.78043 122.031 2.75505 129.67Z" fill="url(#paint0_linear_2219_4596)"/>
<path fill-rule="evenodd" clip-rule="evenodd" d="M400.698 129.337L285.11 288.946C279.834 296.235 284.845 306.638 293.636 306.638H394.471C396.598 306.638 398.696 306.124 400.599 305.137C402.501 304.15 404.156 302.717 405.432 300.952L529.222 130.032C534.801 122.333 528.881 111.43 519.643 112.387L410.304 123.729C408.416 123.923 406.587 124.521 404.933 125.486C403.28 126.452 401.837 127.763 400.698 129.337Z" fill="#005FFF"/>
<path fill-rule="evenodd" clip-rule="evenodd" d="M400.698 129.337L285.11 288.946C279.834 296.235 284.845 306.638 293.636 306.638H394.471C396.598 306.638 398.696 306.124 400.599 305.137C402.501 304.15 404.156 302.717 405.432 300.952L529.222 130.032C534.801 122.333 528.881 111.43 519.643 112.387L410.304 123.729C408.416 123.923 406.587 124.521 404.933 125.486C403.28 126.452 401.837 127.763 400.698 129.337Z" fill="url(#paint1_linear_2219_4596)"/>
<path fill-rule="evenodd" clip-rule="evenodd" d="M368.809 130.656L245.004 301.627C243.72 303.403 242.053 304.843 240.136 305.83C238.22 306.818 236.107 307.326 233.967 307.313L137.692 306.681C135.585 306.669 133.508 306.151 131.624 305.17C129.741 304.189 128.1 302.77 126.832 301.023L96.4413 259.232C94.6497 256.769 93.6791 253.768 93.6758 250.682C93.6725 247.597 94.6367 244.594 96.423 242.127L267.657 5.6766C268.929 3.92023 270.576 2.49362 272.469 1.50871C274.362 0.523811 276.448 0.00742604 278.566 7.9504e-05C280.683 -0.00726703 282.773 0.494621 284.672 1.46637C286.571 2.43812 288.227 3.85328 289.51 5.60078L368.748 113.489C370.561 115.952 371.547 118.963 371.558 122.062C371.569 125.161 370.604 128.179 368.809 130.656Z" fill="#005FFF"/>
<path fill-rule="evenodd" clip-rule="evenodd" d="M368.809 130.656L245.004 301.627C243.72 303.403 242.053 304.843 240.136 305.83C238.22 306.818 236.107 307.326 233.967 307.313L137.692 306.681C135.585 306.669 133.508 306.151 131.624 305.17C129.741 304.189 128.1 302.77 126.832 301.023L96.4413 259.232C94.6497 256.769 93.6791 253.768 93.6758 250.682C93.6725 247.597 94.6367 244.594 96.423 242.127L267.657 5.6766C268.929 3.92023 270.576 2.49362 272.469 1.50871C274.362 0.523811 276.448 0.00742604 278.566 7.9504e-05C280.683 -0.00726703 282.773 0.494621 284.672 1.46637C286.571 2.43812 288.227 3.85328 289.51 5.60078L368.748 113.489C370.561 115.952 371.547 118.963 371.558 122.062C371.569 125.161 370.604 128.179 368.809 130.656Z" fill="url(#paint2_linear_2219_4596)"/>
<defs>
<linearGradient id="paint0_linear_2219_4596" x1="-538.95" y1="-404.947" x2="-697.987" y2="-98.0683" gradientUnits="userSpaceOnUse">
<stop offset="0.177786" stop-color="#B38AF8"/>
<stop offset="0.563822" stop-color="#005FFF"/>
<stop offset="1" stop-color="#00ECBB"/>
</linearGradient>
<linearGradient id="paint1_linear_2219_4596" x1="-669.056" y1="-801.613" x2="-973.237" y2="-217.34" gradientUnits="userSpaceOnUse">
<stop offset="0.177786" stop-color="#B38AF8"/>
<stop offset="0.563822" stop-color="#005FFF"/>
<stop offset="1" stop-color="#00ECBB"/>
</linearGradient>
<linearGradient id="paint2_linear_2219_4596" x1="-971.19" y1="-1445.45" x2="-1525.14" y2="-720.137" gradientUnits="userSpaceOnUse">
<stop offset="0.177786" stop-color="#B38AF8"/>
<stop offset="0.563822" stop-color="#005FFF"/>
<stop offset="1" stop-color="#00ECBB"/>
</linearGradient>
</defs>
</svg>
